<svg id="Ebene_1" data-name="Ebene 1" xmlns="http://www.w3.org/2000/svg" xmlns:xlink="http://www.w3.org/1999/xlink" viewBox="0 0 366 394"><defs><linearGradient id="Unbenannter_Verlauf_81" y1="197" x2="366" y2="197" gradientUnits="userSpaceOnUse"><stop offset="0" stop-color="#2a94ea"/><stop offset="1" stop-color="#2442bc"/></linearGradient><linearGradient id="Unbenannter_Verlauf_101" x1="183" y1="1" x2="183" y2="393" gradientUnits="userSpaceOnUse"><stop offset="0" stop-color="#77bde5"/><stop offset="0.06" stop-color="#6db7e6" stop-opacity="0.89"/><stop offset="0.19" stop-color="#58aae8" stop-opacity="0.66"/><stop offset="0.33" stop-color="#459ee9" stop-opacity="0.46"/><stop offset="0.47" stop-color="#3695eb" stop-opacity="0.29"/><stop offset="0.61" stop-color="#2a8dec" stop-opacity="0.16"/><stop offset="0.74" stop-color="#2288ec" stop-opacity="0.07"/><stop offset="0.87" stop-color="#1d85ed" stop-opacity="0.02"/><stop offset="1" stop-color="#1b84ed" stop-opacity="0"/></linearGradient></defs><title>biggest_warehouse</title><path d="M335.4,316.48,212.19,385.4a59.8,59.8,0,0,1-58.38,0L30.61,316.48A59.8,59.8,0,0,1,0,264.29V129.71A59.8,59.8,0,0,1,30.6,77.52L153.81,8.6a59.8,59.8,0,0,1,58.38,0l123.2,68.91A59.8,59.8,0,0,1,366,129.71V264.29A59.8,59.8,0,0,1,335.4,316.48Z" fill="url(#Unbenannter_Verlauf_81)"/><path d="M335.4,316.48,212.19,385.4a59.8,59.8,0,0,1-58.38,0L30.61,316.48A59.8,59.8,0,0,1,0,264.29V129.71A59.8,59.8,0,0,1,30.6,77.52L153.81,8.6a59.8,59.8,0,0,1,58.38,0l123.2,68.91A59.8,59.8,0,0,1,366,129.71V264.29A59.8,59.8,0,0,1,335.4,316.48Z" fill="url(#Unbenannter_Verlauf_101)"/><polygon points="61.34 180.98 65.93 190.27 76.18 191.76 68.76 198.99 70.52 209.2 61.34 204.38 52.17 209.2 53.92 198.99 46.51 191.76 56.76 190.27 61.34 180.98" fill="#edcb69"/><polygon points="305.67 180.98 310.25 190.27 320.5 191.76 313.08 198.99 314.84 209.2 305.67 204.38 296.5 209.2 298.25 198.99 290.83 191.76 301.08 190.27 305.67 180.98" fill="#edcb69"/><polygon points="185 308.82 189.59 318.11 199.84 319.6 192.42 326.83 194.18 337.05 185 332.23 175.83 337.05 177.58 326.83 170.16 319.6 180.42 318.11 185 308.82" fill="#edcb69"/><polygon points="118.28 284.05 122.87 293.34 133.12 294.83 125.7 302.06 127.45 312.28 118.28 307.45 109.11 312.28 110.86 302.06 103.44 294.83 113.69 293.34 118.28 284.05" fill="#edcb69"/><polygon points="118.28 77.28 122.87 86.57 133.12 88.06 125.7 95.3 127.45 105.51 118.28 100.69 109.11 105.51 110.86 95.3 103.44 88.06 113.69 86.57 118.28 77.28" fill="#edcb69"/><polygon points="251.73 284.05 256.31 293.34 266.57 294.83 259.15 302.06 260.9 312.28 251.73 307.45 242.56 312.28 244.31 302.06 236.89 294.83 247.14 293.34 251.73 284.05" fill="#edcb69"/><polygon points="251.73 83.28 256.31 92.57 266.57 94.06 259.15 101.29 260.9 111.5 251.73 106.68 242.56 111.5 244.31 101.29 236.89 94.06 247.14 92.57 251.73 83.28" fill="#edcb69"/><polygon points="293.68 239.1 298.26 248.39 308.52 249.88 301.1 257.11 302.85 267.33 293.68 262.5 284.51 267.33 286.26 257.11 278.84 249.88 289.09 248.39 293.68 239.1" fill="#edcb69"/><polygon points="293.68 125.23 298.26 134.52 308.52 136.01 301.1 143.24 302.85 153.46 293.68 148.63 284.51 153.46 286.26 143.24 278.84 136.01 289.09 134.52 293.68 125.23" fill="#edcb69"/><polygon points="73.33 125.23 77.92 134.52 88.17 136.01 80.75 143.24 82.5 153.46 73.33 148.63 64.16 153.46 65.91 143.24 58.49 136.01 68.75 134.52 73.33 125.23" fill="#edcb69"/><polygon points="71.43 239.1 76.02 248.39 86.27 249.88 78.85 257.11 80.61 267.33 71.43 262.5 62.26 267.33 64.01 257.11 56.59 249.88 66.85 248.39 71.43 239.1" fill="#edcb69"/><polygon points="185 58.51 189.59 67.8 199.84 69.29 192.42 76.52 194.18 86.73 185 81.91 175.83 86.73 177.58 76.52 170.16 69.29 180.42 67.8 185 58.51" fill="#edcb69"/><path d="M114.81,226.17a8.76,8.76,0,1,1-8.76,8.76,8.77,8.77,0,0,1,8.76-8.76m0-3.42A12.18,12.18,0,1,0,127,234.93a12.18,12.18,0,0,0-12.18-12.18Z" fill="#fff"/><circle cx="114.81" cy="235.14" r="5.56" fill="#fff"/><path d="M195.81,226.17a8.76,8.76,0,1,1-8.76,8.76,8.77,8.77,0,0,1,8.76-8.76m0-3.42A12.18,12.18,0,1,0,208,234.93a12.18,12.18,0,0,0-12.18-12.18Z" fill="#fff"/><circle cx="195.81" cy="235.14" r="5.56" fill="#fff"/><path d="M102.14,212.27v7.19a1.55,1.55,0,0,0,2.38,1.31,18.35,18.35,0,0,1,9.89-2.92,17.63,17.63,0,0,1,17.71,19.2c-.09.91-.24,2.5-.46,2.5h47.58a16.4,16.4,0,0,1-.61-4.38c0-11,10.18-19.41,21.65-16.88a17.22,17.22,0,0,1,13.43,17,15.93,15.93,0,0,1-.61,4.3h9a2,2,0,0,0,2-2V225.22h49.53v-3.77l-49.53-3.9V144.37a2.3,2.3,0,0,0-2.3-2.3h-5.37a2.3,2.3,0,0,0-2.3,2.3v72.81l-11.66-3.53L174.68,145a4.6,4.6,0,0,0-4.27-2.88H122a6.74,6.74,0,0,0-6.44,6.35l-3.8,58.07h-4A5.7,5.7,0,0,0,102.14,212.27ZM185,196.4H122.38l1.52-44.61h44Z" fill="#fff"/><path d="M271.39,186.64v34.9l-39.28-3.09V186.64Z" fill="#fff"/></svg>