<svg id="Ebene_1" data-name="Ebene 1" xmlns="http://www.w3.org/2000/svg" xmlns:xlink="http://www.w3.org/1999/xlink" viewBox="0 0 366 394"><defs><linearGradient id="Unbenannter_Verlauf_49" y1="197" x2="366" y2="197" gradientUnits="userSpaceOnUse"><stop offset="0" stop-color="#e84b39"/><stop offset="1" stop-color="#eec233"/></linearGradient><linearGradient id="Unbenannter_Verlauf_78" x1="183" y1="1" x2="183" y2="393" gradientUnits="userSpaceOnUse"><stop offset="0" stop-color="#dddb00"/><stop offset="0.04" stop-color="#dddb00" stop-opacity="0.93"/><stop offset="0.18" stop-color="#dddb00" stop-opacity="0.68"/><stop offset="0.32" stop-color="#dddb00" stop-opacity="0.47"/><stop offset="0.46" stop-color="#dddb00" stop-opacity="0.3"/><stop offset="0.6" stop-color="#dddb00" stop-opacity="0.17"/><stop offset="0.74" stop-color="#dddb00" stop-opacity="0.08"/><stop offset="0.87" stop-color="#dddb00" stop-opacity="0.02"/><stop offset="1" stop-color="#dddb00" stop-opacity="0"/></linearGradient></defs><title>service_repair</title><path d="M335.4,316.48,212.19,385.4a59.8,59.8,0,0,1-58.38,0L30.61,316.48A59.8,59.8,0,0,1,0,264.29V129.71A59.8,59.8,0,0,1,30.6,77.52L153.81,8.6a59.8,59.8,0,0,1,58.38,0l123.2,68.91A59.8,59.8,0,0,1,366,129.71V264.29A59.8,59.8,0,0,1,335.4,316.48Z" fill="url(#Unbenannter_Verlauf_49)"/><path d="M335.4,316.48,212.19,385.4a59.8,59.8,0,0,1-58.38,0L30.61,316.48A59.8,59.8,0,0,1,0,264.29V129.71A59.8,59.8,0,0,1,30.6,77.52L153.81,8.6a59.8,59.8,0,0,1,58.38,0l123.2,68.91A59.8,59.8,0,0,1,366,129.71V264.29A59.8,59.8,0,0,1,335.4,316.48Z" fill="url(#Unbenannter_Verlauf_78)"/><path d="M208.66,169.72h-39v36.63a13.3,13.3,0,0,0-5.57-1.2c-6.64,0-12,4.73-12,10.57s5.39,10.57,12,10.57,12-4.73,12-10.57V184.25h26v22.09a13.31,13.31,0,0,0-5.57-1.2c-6.64,0-12,4.73-12,10.57s5.39,10.57,12,10.57,12-4.73,12-10.57Z" fill="#fff"/><path d="M167.5,82.72l-7.94,28a90.06,90.06,0,0,0-20.63,8.51l-25.46-14.16L90.71,127.84l14.16,25.46a90.06,90.06,0,0,0-8.51,20.63l-28,7.94v32.26l28,7.94a90.06,90.06,0,0,0,8.51,20.63L90.71,268.17l22.76,22.76,25.46-14.16a90.07,90.07,0,0,0,20.63,8.51l7.94,28h32.26l7.94-28a90.07,90.07,0,0,0,20.63-8.51l25.46,14.16,22.76-22.76L262.39,242.7a90.06,90.06,0,0,0,8.51-20.63l28-7.94V181.87l-28-7.94a90.06,90.06,0,0,0-8.51-20.63l14.16-25.46L253.8,105.07l-25.46,14.16a90.06,90.06,0,0,0-20.63-8.51l-7.94-28ZM183.63,143a55,55,0,1,1-55,55A55.1,55.1,0,0,1,183.63,143Z" fill="#fff"/></svg>