<svg id="Ebene_1" data-name="Ebene 1" xmlns="http://www.w3.org/2000/svg" xmlns:xlink="http://www.w3.org/1999/xlink" viewBox="0 0 366 394"><defs><linearGradient id="Unbenannter_Verlauf_8" y1="196.85" x2="366" y2="196.85" gradientUnits="userSpaceOnUse"><stop offset="0" stop-color="#575756"/><stop offset="1" stop-color="#868686"/></linearGradient><linearGradient id="Unbenannter_Verlauf_166" x1="183" y1="0.78" x2="183" y2="392.92" gradientUnits="userSpaceOnUse"><stop offset="0" stop-color="#8b85e0" stop-opacity="0.5"/><stop offset="1" stop-color="#7a69e2" stop-opacity="0"/></linearGradient></defs><title>security</title><path d="M335.4,316.37,212.2,385.3a59.81,59.81,0,0,1-58.41,0L30.6,316.37A59.81,59.81,0,0,1,0,264.18V129.52A59.81,59.81,0,0,1,30.6,77.32L153.8,8.39a59.81,59.81,0,0,1,58.41,0L335.4,77.32A59.81,59.81,0,0,1,366,129.52V264.18A59.81,59.81,0,0,1,335.4,316.37Z" fill="url(#Unbenannter_Verlauf_8)"/><path d="M335.4,316.37,212.2,385.3a59.81,59.81,0,0,1-58.41,0L30.6,316.37A59.81,59.81,0,0,1,0,264.18V129.52A59.81,59.81,0,0,1,30.6,77.32L153.8,8.39a59.81,59.81,0,0,1,58.41,0L335.4,77.32A59.81,59.81,0,0,1,366,129.52V264.18A59.81,59.81,0,0,1,335.4,316.37Z" fill="url(#Unbenannter_Verlauf_166)"/><path d="M251.08,182.61h-8.79V145.06a59.4,59.4,0,0,0-118.79,0v37.54h-8.79a8.67,8.67,0,0,0-8.79,8.75v88.52a8.67,8.67,0,0,0,8.79,8.75H251.29a8.67,8.67,0,0,0,8.79-8.75V191.35A9,9,0,0,0,251.08,182.61ZM195,264.2H171.36L175.71,235a15.36,15.36,0,0,1-7.88-13,15.22,15.22,0,0,1,30.43,0,14.69,14.69,0,0,1-7.88,13Zm19.41-81.6h-63V146.77a31.52,31.52,0,0,1,63,0Z" fill="#fff"/></svg>